<svg width="1920" height="1080" viewBox="0 0 1920 1080" fill="none" xmlns="http://www.w3.org/2000/svg">
<line x1="9" y1="889.5" x2="1911.14" y2="889.5" stroke="#363636"/>
<path d="M1593.54 776.693C1585.45 780.953 1575.21 782.965 1564.9 783.597L1565.03 784.288L1565.03 784.288L1564.74 784.344L1564.74 784.344L1564.59 783.575C1563 782.997 1561.8 782.755 1560.9 782.706L1560.9 782.706C1559.84 782.648 1559.52 784.129 1560.52 784.514L1560.53 784.517L1560.53 784.521L1561.89 785.24L1562.27 785.438L1561.85 785.52L1560.26 785.831L1560.26 785.832L1560.25 785.833C1558.99 785.979 1558.03 786.275 1557.3 786.63C1556.31 787.103 1555.93 788.096 1556.07 789.011C1556.21 789.927 1556.87 790.742 1557.95 790.87C1559.67 791.072 1561.54 790.3 1563 789.458C1563.72 789.039 1564.34 788.606 1564.77 788.279C1564.99 788.115 1565.16 787.978 1565.28 787.882C1565.3 787.865 1565.32 787.849 1565.34 787.835L1565.17 787.672L1565.57 787.693C1577.18 788.312 1590.43 788.087 1599.73 784.24L1593.54 776.693Z" fill="#F9F9F9" stroke="#363636" stroke-width="0.3"/>
<path d="M1468.83 813.234L1467.94 814.314V812.917V765.578H1467.46H1466.96V765.481H1420.79H1419.43L1420.46 764.6C1425.4 760.38 1428.29 753.822 1427.4 746.64C1426.26 737.493 1418.81 730.159 1409.65 729.154C1397.47 727.817 1387.15 737.319 1387.15 749.228C1387.15 755.38 1389.91 760.892 1394.25 764.6L1395.29 765.481H1393.93H1346.92V859.957C1346.92 874.53 1358.73 886.343 1373.31 886.343H1467.94V839.19V837.792L1468.83 838.873C1472.53 843.381 1478.15 846.256 1484.43 846.256C1496.34 846.256 1505.83 835.968 1504.51 823.798C1503.52 814.578 1496.11 807.091 1486.9 805.997C1479.63 805.133 1473 808.143 1468.83 813.234Z" fill="#F9F9F9" stroke="#363636"/>
<path d="M1563.36 554.22L1569.06 601.126C1564.19 596.467 1557.1 594.206 1549.82 595.951C1540.57 598.165 1533.92 606.68 1534.02 616.193C1534.15 628.761 1545.1 638.085 1557.22 636.614C1563.64 635.835 1569 632.2 1572.21 627.133L1577.98 674.669L1578.95 674.551L1578.97 674.648L1625.65 668.981C1620.96 673.85 1618.7 680.967 1620.45 688.264C1622.68 697.514 1631.21 704.147 1640.72 704.036C1653.27 703.89 1662.58 692.952 1661.11 680.838C1660.33 674.415 1656.69 669.033 1651.61 665.83L1699.26 660.046L1687.87 566.191C1686.08 551.45 1672.68 540.951 1657.94 542.74L1563.36 554.22Z" fill="#DA8C76"/>
<path d="M1588.18 673.529L1637.21 510.149L1674.24 663.083" stroke="#363636" stroke-width="2.84317" stroke-miterlimit="10"/>
<path d="M1637.21 511.831V430.326" stroke="#363636" stroke-width="2.84317" stroke-miterlimit="10"/>
<path d="M1646.18 511.831C1646.18 516.786 1642.16 520.802 1637.2 520.802C1632.25 520.802 1628.23 516.786 1628.23 511.831C1628.23 506.876 1632.25 502.859 1637.2 502.859C1642.16 502.859 1646.18 506.876 1646.18 511.831Z" fill="#DA8C76"/>
<path d="M1592.32 504.361L1592.32 504.355L1592.31 504.35L1591.65 503.609L1591.65 503.608L1588.98 500.608L1585.4 502.926C1585.58 503.091 1585.76 503.254 1585.94 503.416C1586.46 503.892 1586.98 504.354 1587.41 504.828C1588.03 505.508 1588.51 506.231 1588.67 507.093L1588.68 507.141L1588.66 507.185L1586.34 512.103L1590.75 513.185L1594.83 506.325C1593.9 505.637 1592.96 504.945 1592.32 504.361Z" fill="#F9F9F9" stroke="#363636" stroke-width="0.3"/>
<path d="M1604.26 547.774C1606.89 543.775 1607.42 540.704 1607.1 537.938C1606.94 536.524 1606.55 535.181 1606.1 533.819C1605.97 533.403 1605.82 532.983 1605.68 532.559C1605.37 531.673 1605.06 530.767 1604.79 529.831L1591.92 532.015C1591.66 534.238 1590.73 536.365 1589.59 538.462L1604.26 547.774Z" fill="#F9F9F9" stroke="#363636" stroke-width="0.5"/>
<path d="M1587.49 522.255C1585.09 519.468 1584.55 515.533 1586.13 512.205C1588.21 512.505 1590.21 511.257 1590.85 509.254L1592.45 504.279C1601.25 507.577 1599.6 524.414 1604.3 526.667L1591.56 528.829C1591.33 527.693 1590.89 526.546 1590.17 525.36L1587.49 522.255Z" fill="#363636"/>
<path d="M1591.69 531.789C1591.8 530.816 1591.77 529.835 1591.56 528.829L1604.3 526.667C1604.47 527.659 1604.71 528.606 1604.97 529.535L1591.69 531.789Z" fill="#363636"/>
<path d="M1604.88 546.451L1604.88 546.45C1605.12 545.519 1605.08 544.409 1604.72 543.103L1604.71 543.102C1603.61 538.991 1600.09 535.962 1595.89 535.174L1595.89 535.174L1583.11 532.763L1583.05 532.753L1583.04 532.742L1576.15 531.224L1576.15 531.223L1574.41 530.843C1568.46 529.721 1562.75 533.733 1561.32 539.638L1553.92 570.402L1553.92 570.404L1553.88 570.542L1553.88 570.561L1553.87 570.58L1553.85 570.638L1553.8 570.759L1553.67 570.788L1545.56 572.687L1545.56 572.688L1545.55 572.689C1545.06 572.787 1544.78 572.933 1544.62 573.074C1544.47 573.209 1544.44 573.334 1544.46 573.437C1544.48 573.551 1544.56 573.687 1544.72 573.805C1544.87 573.922 1545.09 574.01 1545.34 574.034L1545.34 574.034L1545.34 574.034C1547.38 574.253 1549.15 574.436 1550.62 574.523C1552.11 574.611 1553.28 574.6 1554.17 574.438C1555.06 574.276 1555.61 573.972 1555.89 573.514C1556.18 573.052 1556.24 572.368 1555.99 571.345L1555.99 571.338L1555.99 571.33L1555.99 571.318C1555.98 571.245 1555.97 571.188 1555.95 571.123L1555.92 571.02L1555.97 570.927L1556.05 570.793L1556.05 570.793L1563.71 557.435L1562.12 553.09L1562.12 553.09C1560.94 549.88 1561.9 546.295 1564.49 544.095C1565.67 543.082 1567.11 542.449 1568.59 542.231L1568.59 542.231C1569.97 542.032 1571.42 542.186 1572.76 542.715C1572.76 542.715 1572.76 542.715 1572.76 542.715L1574.39 543.359L1574.39 543.359L1578.8 545.095L1578.8 545.095L1589.46 549.308L1589.46 549.308C1591.68 550.189 1594.05 550.651 1596.41 550.632L1596.42 550.631L1596.43 550.631C1597.3 550.616 1598.17 550.544 1599.04 550.397C1602.4 549.827 1604.35 548.528 1604.88 546.451Z" fill="#F9F9F9" stroke="#363636" stroke-width="0.5"/>
<path d="M1573.21 554.767C1572.83 554.348 1572.4 554.17 1571.89 554.235L1571.85 553.986L1571.82 553.738L1576.68 553.126L1576.68 553.126L1595.3 550.773L1578.63 545.276L1578.63 545.276L1574.22 543.829L1574.21 543.827L1574.2 543.824L1572.57 543.18L1572.57 543.18C1571.32 542.684 1569.95 542.54 1568.66 542.726C1567.27 542.931 1565.92 543.525 1564.82 544.474L1564.82 544.475C1562.38 546.541 1561.48 549.905 1562.59 552.918L1564.2 557.325L1564.2 557.325L1575.38 588.011L1575.38 588.011L1575.38 588.016L1575.41 588.078L1575.45 588.221L1575.35 588.331L1569.63 594.414L1569.63 594.414L1569.62 594.42C1569.27 594.771 1569.11 595.053 1569.06 595.256C1569.01 595.448 1569.05 595.564 1569.12 595.637C1569.2 595.721 1569.34 595.788 1569.54 595.798C1569.74 595.809 1569.97 595.763 1570.2 595.649C1572.03 594.692 1573.61 593.865 1574.89 593.115C1576.18 592.364 1577.15 591.701 1577.8 591.073C1578.44 590.445 1578.72 589.888 1578.69 589.345C1578.67 588.798 1578.32 588.186 1577.53 587.459C1577.5 587.437 1577.48 587.413 1577.47 587.401L1577.46 587.398C1577.44 587.38 1577.44 587.377 1577.44 587.377L1577.34 587.307L1577.34 587.185L1577.33 587.11C1576.48 581.646 1576.12 575.828 1575.8 570.629C1575.67 568.465 1575.54 566.408 1575.39 564.528C1575.12 561.318 1574.79 558.636 1574.22 556.799C1573.94 555.879 1573.6 555.197 1573.21 554.767Z" fill="#F9F9F9" stroke="#363636" stroke-width="0.5"/>
<path d="M1582.91 529.714L1582.37 532.287L1564.4 528.607C1564.4 528.607 1558.51 509.87 1558.7 509.837C1558.9 509.804 1561.19 509.415 1561.19 509.415L1566.78 526.094L1582.91 529.714Z" fill="#DA8C76"/>
<path d="M1588.19 494.944L1588.14 495.011L1588.02 494.841C1587.09 493.526 1585.75 492.285 1584.37 491.463C1582.98 490.637 1581.59 490.255 1580.54 490.593L1580.54 490.593C1579.11 491.053 1577.97 491.861 1577.49 493.449C1577 495.053 1577.19 497.481 1578.5 501.2L1578.5 501.2C1578.61 501.514 1578.75 501.82 1578.91 502.117L1578.96 502.203L1578.9 502.28C1578.79 502.416 1578.7 502.558 1578.64 502.687C1578.59 502.821 1578.59 502.902 1578.62 502.948L1578.62 502.948C1578.65 502.999 1578.71 503.035 1578.84 503.038C1578.97 503.042 1579.12 503.014 1579.25 502.98L1579.37 502.855L1579.48 502.997C1580.92 504.916 1583.32 506.1 1585.55 505.591L1585.55 505.591C1586.6 505.352 1587.5 504.457 1588.16 503.246C1588.82 502.038 1589.22 500.541 1589.29 499.147L1589.3 499.08L1589.35 499.038C1589.41 498.991 1589.45 498.901 1589.48 498.747C1589.5 498.595 1589.49 498.402 1589.46 498.176C1589.39 497.726 1589.23 497.18 1589.03 496.657C1588.84 496.135 1588.61 495.644 1588.42 495.303C1588.33 495.14 1588.25 495.018 1588.19 494.944Z" fill="#F9F9F9" stroke="#363636" stroke-width="0.3"/>
<path d="M1581.78 502.441C1582.1 501.904 1582.3 501.144 1581.84 500.222C1581.8 500.146 1581.71 500.115 1581.63 500.152C1581.56 500.19 1581.53 500.281 1581.56 500.358C1582.38 502.004 1580.86 503.034 1580.79 503.078C1580.72 503.124 1580.7 503.218 1580.75 503.29C1580.79 503.361 1580.89 503.381 1580.96 503.334C1580.97 503.328 1581.45 503.007 1581.78 502.441Z" fill="#363636"/>
<path d="M1576.1 497.983C1577.44 497.756 1579.7 497.018 1581.14 496.496C1582.55 495.983 1584.13 496.576 1584.9 497.868C1585.62 499.086 1586.4 500.366 1586.6 500.67C1586.9 501.143 1587.48 501.965 1586.84 503.889C1586.51 504.885 1586.05 505.762 1585.91 506.827C1585.64 508.879 1585.85 511.371 1587.84 512.528C1589.17 513.303 1591.06 512.881 1592.14 511.855C1590.47 512.206 1589.49 510.14 1589.66 508.777C1589.86 507.163 1590.39 505.221 1592.16 504.766C1593.48 504.428 1594.44 504.662 1594.95 506.012C1595.3 506.931 1595.18 507.951 1595.49 508.879C1595.94 510.206 1596.75 511.218 1598.12 511.597C1599.67 512.029 1601.68 512.592 1603.13 511.509C1604.15 510.748 1605.04 509.15 1605.47 508.005C1604.6 508.537 1603.87 508.81 1602.88 508.387C1601.37 507.743 1601.91 506.258 1602.01 504.984C1602.13 503.511 1601.57 501.743 1600.33 500.832C1599.57 500.27 1598.13 500.458 1597.21 500.255C1596.3 500.056 1595.66 499.747 1595.38 498.831C1595.17 498.155 1595.08 497.388 1594.98 496.686C1594.54 493.488 1591.99 489.092 1586.98 487.058C1585.66 486.522 1584.07 486.747 1582.74 486.972C1581.73 487.142 1577.66 488.557 1576.27 491.228C1574.85 493.978 1576.1 497.983 1576.1 497.983Z" fill="#363636"/>
<path d="M1576.27 526.264L1576.24 526.268L1576.21 526.247C1573.97 524.741 1572.03 524.057 1570.58 524.112C1569.85 524.14 1569.25 524.351 1568.79 524.732C1568.36 525.097 1568.04 525.623 1567.88 526.311L1575.39 527.992L1575.39 527.992L1575.41 527.994L1575.47 528.002C1575.52 528.009 1575.61 528.02 1575.72 528.034C1575.93 528.062 1576.25 528.101 1576.65 528.15C1577.46 528.248 1578.61 528.382 1579.99 528.526C1582.76 528.814 1586.46 529.143 1590.17 529.307C1593.89 529.472 1597.61 529.472 1600.43 529.104C1601.85 528.92 1603.03 528.644 1603.87 528.255C1604.71 527.865 1605.18 527.374 1605.24 526.77C1605.42 524.834 1605.24 523.309 1604.42 521.232C1603.6 519.165 1602.14 516.553 1599.77 512.448C1597.76 514.071 1596.8 514.826 1595.16 516.05C1596.81 518.488 1598.08 520.322 1598.94 521.549C1599.37 522.169 1599.7 522.635 1599.92 522.945C1600.04 523.1 1600.12 523.216 1600.18 523.294L1600.24 523.381L1600.25 523.403L1600.26 523.408L1600.26 523.41L1600.26 523.41L1600.26 523.41L1600.18 523.469L1600.26 523.41L1600.36 523.549L1600.19 523.568L1576.27 526.264Z" fill="#F9F9F9" stroke="#363636" stroke-width="0.2"/>
<path d="M1599.8 512.296C1597.7 513.995 1596.73 514.751 1595.03 516.026C1592.58 512.371 1590.64 508.851 1590.22 507.97C1589.43 506.281 1590.82 504.575 1593.14 504.158C1595.47 503.739 1596.97 508.085 1598.78 510.782C1599.13 511.301 1599.47 511.798 1599.8 512.296Z" fill="#363636"/>
<path d="M1545.31 574.272C1544.15 574.159 1543.47 572.844 1545.5 572.433L1553.62 570.534L1553.64 570.476L1553.67 570.336L1556.24 571.276C1557.24 575.466 1553.49 575.147 1545.31 574.272Z" fill="#363636"/>
<path d="M1570.31 595.861C1569.27 596.392 1567.98 595.702 1569.45 594.232L1575.17 588.149L1575.15 588.086L1577.69 587.256C1580.95 590.241 1577.65 592.032 1570.31 595.861Z" fill="#363636"/>
<path d="M1548.99 780.677C1548.99 793.026 1538.31 802.88 1525.68 801.496C1516.11 800.446 1508.35 792.745 1507.24 783.177C1506.39 775.887 1509.3 769.221 1514.29 764.882H1468.19V811.791C1472.54 806.83 1479.21 803.943 1486.49 804.808C1496.05 805.943 1503.73 813.705 1504.77 823.273C1506.13 835.89 1496.28 846.562 1483.94 846.562C1477.66 846.562 1472.03 843.799 1468.19 839.427V886.148H1562.24C1576.95 886.148 1588.87 874.223 1588.87 859.512V764.882H1541.8C1546.21 768.718 1548.99 774.376 1548.99 780.677Z" fill="#F9F9F9" stroke="#363636" stroke-width="0.5"/>
<path d="M1609.85 774.208C1609.85 775.093 1609.6 776.001 1609.06 776.832C1608.04 778.396 1606.8 779.807 1605.4 781.009C1603.99 782.222 1602.4 783.229 1600.7 783.994C1600.46 784.103 1600.22 784.201 1599.97 784.301L1593.58 776.504C1596.59 774.918 1599.29 773.017 1601.58 770.753C1602.7 769.649 1604.27 769.145 1605.81 769.408C1608.27 769.834 1609.85 771.956 1609.85 774.208Z" fill="#363636"/>
<path d="M1602.3 761.836L1598.77 767.354C1601.32 769.673 1602.62 773.31 1603.2 775.409L1603.2 775.409C1603.26 775.647 1603.46 775.784 1603.67 775.8C1603.68 775.796 1603.69 775.79 1603.7 775.782C1603.74 775.756 1603.79 775.715 1603.86 775.66C1603.99 775.549 1604.18 775.387 1604.38 775.184C1604.8 774.779 1605.33 774.218 1605.82 773.598C1606.31 772.977 1606.76 772.303 1607.03 771.672C1607.3 771.035 1607.37 770.476 1607.17 770.06L1607.3 770.001L1607.17 770.06C1606.2 768.042 1604.95 765.94 1603.94 764.341C1603.44 763.542 1602.99 762.869 1602.68 762.396C1602.52 762.159 1602.39 761.973 1602.3 761.846C1602.3 761.842 1602.3 761.839 1602.3 761.836ZM1603.66 775.807C1603.66 775.807 1603.66 775.808 1603.66 775.808C1603.66 775.808 1603.66 775.808 1603.66 775.807Z" fill="#F9F9F9" stroke="#363636" stroke-width="0.3"/>
<path d="M1604.2 758.5L1604.14 758.566L1604.04 758.384C1603.2 756.809 1601.89 755.26 1600.47 754.167C1599.05 753.07 1597.56 752.458 1596.35 752.691L1596.35 752.691C1594.72 753.007 1593.35 753.746 1592.6 755.439C1591.85 757.146 1591.73 759.849 1592.67 764.123L1592.67 764.123C1592.69 764.218 1592.7 764.277 1592.71 764.319C1592.71 764.332 1592.72 764.343 1592.72 764.351C1592.72 764.373 1592.72 764.383 1592.73 764.395C1592.73 764.42 1592.74 764.443 1592.79 764.557C1592.8 764.58 1592.81 764.607 1592.82 764.639L1592.85 764.73L1592.79 764.8C1592.65 764.935 1592.53 765.081 1592.45 765.217C1592.37 765.359 1592.36 765.455 1592.39 765.517L1592.25 765.575L1592.39 765.516C1592.42 765.583 1592.49 765.633 1592.63 765.655C1592.77 765.676 1592.94 765.664 1593.1 765.645C1593.1 765.644 1593.1 765.643 1593.11 765.641L1593.24 765.54L1593.33 765.686C1593.99 766.843 1595 767.971 1596.16 768.775C1597.32 769.579 1598.62 770.051 1599.87 769.922C1601.07 769.798 1602.18 768.928 1603.07 767.68C1603.96 766.436 1604.6 764.838 1604.87 763.31L1604.88 763.244L1604.94 763.208C1605.02 763.161 1605.08 763.064 1605.13 762.895C1605.18 762.729 1605.19 762.513 1605.19 762.259C1605.18 761.753 1605.07 761.128 1604.92 760.525C1604.77 759.923 1604.59 759.35 1604.42 758.948C1604.34 758.745 1604.26 758.593 1604.21 758.503C1604.2 758.502 1604.2 758.501 1604.2 758.5Z" fill="#F9F9F9" stroke="#363636" stroke-width="0.3"/>
<path d="M1596.02 766.269C1596.44 765.719 1596.76 764.908 1596.38 763.831C1596.34 763.743 1596.25 763.696 1596.16 763.727C1596.07 763.757 1596.02 763.855 1596.05 763.944C1596.73 765.867 1594.92 766.797 1594.84 766.837C1594.75 766.878 1594.72 766.981 1594.76 767.066C1594.8 767.15 1594.91 767.184 1594.99 767.142C1595 767.136 1595.57 766.847 1596.02 766.269Z" fill="#363636"/>
<path d="M1648.9 881.108C1650.85 886.245 1646.55 886.208 1636.52 886.177C1635.13 886.163 1634.16 884.693 1636.52 883.961L1643.76 880.817C1643.76 880.817 1648.05 880.771 1648.78 880.817L1648.9 881.108Z" fill="#363636"/>
<path d="M1637.14 797.043C1641.67 801.792 1643.54 808.502 1642.09 814.914C1641.79 816.263 1641.51 817.556 1641.31 818.664C1641.11 819.768 1640.99 820.7 1640.98 821.321M1637.14 797.043L1641.18 821.322M1637.14 797.043L1626.11 804.952M1637.14 797.043L1625.9 804.856M1640.98 821.321L1641.18 821.322M1640.98 821.321C1640.98 821.321 1640.98 821.321 1640.98 821.321L1641.18 821.322M1640.98 821.321C1640.88 840.555 1643.15 860.577 1648.52 880.616M1641.18 821.322C1641.08 840.556 1643.35 860.579 1648.73 880.616H1648.52M1648.52 880.616C1648.54 880.683 1648.55 880.75 1648.57 880.816H1648.78H1643.76M1648.52 880.616H1643.89M1643.89 880.616C1643.9 880.656 1643.92 880.695 1643.94 880.734L1643.76 880.816M1643.89 880.616H1643.76V880.816M1643.89 880.616C1634.56 859.982 1628.53 834.34 1626.11 804.952M1643.76 880.816C1634.37 860.11 1628.32 834.363 1625.9 804.856M1626.11 804.952L1626.02 805.018L1625.9 804.856M1626.11 804.952C1626.11 804.914 1626.1 804.877 1626.1 804.839L1625.9 804.856" fill="#F9F9F9" stroke="#363636" stroke-width="0.4"/>
<path d="M1619.01 809.905L1639.4 796.445C1628.65 787.209 1623.94 774.482 1616.33 769.715C1613.44 767.902 1610.43 767.093 1607.26 767.709C1602.59 768.614 1599.57 773.35 1600.82 777.932C1601.59 780.727 1603.91 783.653 1606.72 786.795C1611.16 791.75 1614.84 797.335 1617.8 803.288L1619.01 809.905Z" fill="#363636"/>
<path d="M1623.93 828.209L1623.93 828.209L1623.94 828.204L1637.18 797.723L1620.52 808.611C1613.32 819.942 1610.59 831.445 1612.32 843.126C1614.04 854.795 1620.21 866.665 1630.85 878.734L1634.8 877.856L1624.68 856.127C1624.68 856.127 1624.68 856.127 1624.68 856.127C1620.58 847.326 1620.31 837.219 1623.93 828.209Z" fill="#F9F9F9" stroke="#363636" stroke-width="0.4"/>
<path d="M1635.09 877.998L1630.78 878.956L1629.54 883.001C1629.12 884.254 1628.18 885.273 1626.95 885.754C1626.7 885.851 1626.46 885.975 1626.23 886.134C1625.47 886.669 1625.9 887.888 1626.84 887.882L1629.25 887.865C1630.73 887.853 1632.1 887.105 1632.92 885.868L1635.55 881.848C1635.55 881.848 1637.15 880.007 1635.09 877.998Z" fill="#363636"/>
<path d="M1595.72 778.927C1588.64 784.713 1579 788.725 1569.03 791.398L1569.29 792.049L1569.29 792.049L1569.02 792.163L1569.02 792.163L1568.72 791.438C1567.05 791.188 1565.82 791.19 1564.93 791.322L1564.93 791.322C1563.88 791.476 1563.86 792.99 1564.92 793.169L1564.92 793.171L1564.93 793.173L1566.41 793.606L1566.81 793.726L1566.42 793.889L1564.92 794.513L1564.92 794.514L1564.91 794.517C1563.71 794.908 1562.83 795.39 1562.18 795.885C1560.43 797.211 1561.5 800.089 1563.67 799.909C1565.39 799.765 1567.07 798.635 1568.33 797.52C1568.96 796.964 1569.48 796.418 1569.84 796.01C1570.02 795.806 1570.16 795.638 1570.25 795.52C1570.3 795.461 1570.34 795.415 1570.36 795.384L1570.39 795.349L1570.4 795.34L1570.4 795.338L1570.4 795.337L1570.4 795.337L1570.4 795.337L1570.44 795.288L1570.5 795.279C1582 793.573 1594.94 790.711 1603.29 785.088L1595.72 778.927Z" fill="#F9F9F9" stroke="#363636" stroke-width="0.3"/>
<path d="M1611.2 773.243C1611.38 774.109 1611.31 775.049 1610.95 775.971C1610.27 777.705 1609.33 779.336 1608.2 780.794C1607.06 782.263 1605.7 783.566 1604.18 784.655C1603.97 784.811 1603.46 786.685 1603.25 786.83L1593.25 777.6C1595.88 775.448 1600.61 774.179 1602.41 771.502C1603.29 770.199 1604.73 769.393 1606.29 769.343C1608.79 769.269 1610.75 771.035 1611.2 773.243Z" fill="#363636"/>
<path d="M1609.57 759.142C1609.37 758.817 1608.99 758.512 1608.66 758.329C1608.11 758.015 1608.14 758.211 1607.99 757.59C1607.64 756.114 1607.37 754.815 1606.55 753.46C1606.13 752.782 1603.83 750.175 1603 751.8C1603.06 750.517 1601.71 748.625 1600.45 748.14C1599.27 747.685 1597.93 748.816 1598.01 750.053C1597.11 749.577 1595.78 749.461 1594.8 749.672C1594.18 749.806 1592.13 750.68 1592.8 751.636C1591.52 752.048 1590.22 752.83 1589.81 754.228C1589.72 754.538 1589.56 754.953 1589.41 755.389C1589.05 756.451 1590.19 757.402 1591.18 756.891C1590.95 757.489 1590.51 758.155 1591.33 758.605C1592.13 759.041 1593.03 758.35 1593.57 758.64C1594 758.871 1594.1 759.281 1594.67 759.405C1595.03 759.484 1595.53 759.458 1595.9 759.42C1596.68 759.34 1597.41 758.863 1598 758.4C1597.84 760.268 1598.71 761.626 1600.81 761.145C1600.46 762.875 1599.9 764.495 1601.68 765.568C1602.36 765.978 1603.3 766.332 1604.1 766.051C1604.46 765.919 1604.72 765.563 1605.06 765.368C1605.29 765.238 1605.17 765.206 1605.41 765.146C1605.62 765.095 1605.98 765.217 1606.2 765.228C1608.15 765.326 1609.5 763.665 1609.77 761.83C1609.89 761.026 1610.01 759.873 1609.57 759.142Z" fill="#363636"/>
<path d="M1598.74 761.178C1598.74 761.766 1598.9 762.292 1599.14 762.667C1599.38 763.043 1599.7 763.249 1600.03 763.249C1600.36 763.249 1600.68 763.043 1600.92 762.667C1601.16 762.292 1601.32 761.766 1601.32 761.178C1601.32 760.589 1601.16 760.064 1600.92 759.689C1600.68 759.314 1600.36 759.107 1600.03 759.107C1599.7 759.107 1599.38 759.314 1599.14 759.689C1598.9 760.064 1598.74 760.589 1598.74 761.178Z" fill="#F9F9F9" stroke="#363636" stroke-width="0.3"/>
<path d="M1301.52 877.414L1301.51 877.377L1301.52 877.38C1301.54 876.894 1301.69 876.373 1301.94 875.809C1302.11 875.415 1302.45 874.846 1302.63 874.23L1306.2 874.908C1306.2 874.921 1306.19 874.938 1306.19 874.951C1306.6 876.428 1306.86 877.34 1307.17 878.272C1307.67 879.701 1308.41 880.214 1309.73 880.65C1310.02 880.755 1310.5 880.769 1310.79 880.876C1312.05 881.281 1312.12 882.584 1311.93 883.865L1308.62 884.472C1307.42 884.59 1306.72 884.125 1306.17 883.244C1305.4 882.015 1304.47 881.018 1303.43 880.145L1303.33 884.028H1302.61L1301.67 878.325C1301.55 878.035 1301.5 877.731 1301.52 877.414Z" fill="#363636"/>
<path d="M1278.3 882.334L1279.4 877.377C1279.5 876.689 1279.92 876.062 1280.58 875.427C1280.88 875.126 1281.4 874.88 1281.79 874.378L1284.86 876.203C1284.86 876.217 1284.84 876.227 1284.84 876.241C1284.66 877.763 1284.55 878.704 1284.49 879.685C1284.41 881.198 1284.9 881.951 1285.95 882.852C1286.19 883.063 1286.62 883.255 1286.85 883.465C1287.86 884.316 1287.44 885.548 1286.77 886.661L1283.48 885.97C1282.33 885.629 1281.86 884.934 1281.68 883.909C1281.44 882.518 1280.98 881.275 1280.37 880.099L1278.85 882.77L1278.3 882.334Z" fill="#363636"/>
<path d="M1303.52 754.494C1302.46 752.491 1301.17 750.591 1300.11 748.6L1298.64 760.538C1298.64 760.538 1300.84 760.73 1301.55 760.853C1302.24 760.973 1304.17 760.938 1304.6 761.557C1305.75 759.415 1304.54 756.438 1303.52 754.494Z" fill="#363636"/>
<path d="M1291.73 748.145L1290.26 760.082C1290.26 760.082 1292.45 760.274 1293.16 760.397C1293.86 760.516 1295.78 760.482 1296.22 761.102C1297.37 758.959 1296.16 755.981 1295.13 754.04C1294.08 752.036 1292.78 750.135 1291.73 748.145Z" fill="#363636"/>
<path d="M1313.37 766.083C1312.77 765.706 1312.1 765.202 1311.53 764.762C1311.44 764.693 1311.35 764.626 1311.26 764.561C1310.9 764.288 1310.59 764.057 1310.35 763.909C1310.25 763.845 1310.17 763.802 1310.11 763.778C1310.09 763.817 1310.09 763.861 1310.09 763.917C1310.1 764.019 1310.15 764.157 1310.25 764.329C1310.46 764.671 1310.83 765.068 1311.25 765.452C1311.67 765.834 1312.12 766.189 1312.46 766.45C1312.62 766.568 1312.76 766.666 1312.86 766.738L1313.37 766.083Z" fill="#F9F9F9" stroke="#363636" stroke-width="0.5"/>
<path d="M1322.48 749.158C1318.39 751.151 1312.71 754.649 1306.48 755.293L1306.63 760.256C1313.3 759.439 1318.09 761.84 1322.89 763.002L1322.48 749.158Z" fill="#363636"/>
<path d="M1322.9 763.007C1322.06 763.03 1321.29 761.521 1320.89 759.158C1320.72 758.262 1320.62 757.246 1320.59 756.141C1320.56 755.004 1320.6 753.943 1320.71 753.025C1320.97 750.707 1321.64 749.187 1322.47 749.154C1323.63 749.121 1324.66 752.018 1324.78 756.021C1324.9 760.011 1324.05 762.964 1322.9 763.007Z" fill="#222324" fill-opacity="0.133333"/>
<path d="M1321.09 759.225C1321.02 759.225 1320.95 759.203 1320.89 759.158C1320.72 758.262 1320.62 757.246 1320.59 756.141C1320.56 755.004 1320.6 753.944 1320.71 753.026C1320.78 752.97 1320.84 752.937 1320.91 752.937C1321.43 752.926 1321.89 754.238 1321.95 756.054C1322 757.868 1321.62 759.203 1321.09 759.225Z" fill="#F9F9F9"/>
<path d="M1307.81 757.601C1307.84 758.593 1307.05 759.423 1306.06 759.453C1305.07 759.484 1304.24 758.702 1304.21 757.708C1304.18 756.715 1304.96 755.886 1305.95 755.855C1306.95 755.825 1307.78 756.607 1307.81 757.601Z" fill="#363636"/>
<path d="M1306.67 760.779C1306.36 760.789 1306.09 760.541 1306.08 760.227L1305.94 755.446C1305.93 755.132 1306.18 754.87 1306.49 754.86C1306.81 754.85 1307.07 755.099 1307.08 755.411L1307.22 760.193C1307.23 760.506 1306.98 760.77 1306.67 760.779Z" fill="#F9F9F9"/>
<path d="M1310.54 758.598L1310.77 766.15C1310.78 766.672 1311.22 767.082 1311.74 767.068C1312.26 767.051 1312.67 766.615 1312.66 766.094C1312.66 766.094 1312.66 766.094 1312.66 766.094L1312.43 758.54L1310.54 758.598Z" fill="#F9F9F9" stroke="#363636" stroke-width="0.2"/>
<path d="M1314.98 767.096L1314.98 767.049L1314.98 767.049L1314.98 767.049L1314.98 767.047L1314.99 767.036C1314.99 767.027 1314.99 767.012 1314.99 766.992C1314.99 766.953 1315 766.895 1315 766.82C1315.01 766.669 1315.02 766.453 1315.02 766.191C1315.01 765.665 1314.96 764.961 1314.77 764.242C1314.59 763.523 1314.26 762.8 1313.73 762.222C1313.2 761.648 1312.46 761.204 1311.39 761.055L1311.39 761.055C1310.1 760.875 1309.41 762.593 1310.47 763.349L1310.47 763.349C1310.83 763.601 1311.33 763.837 1312.06 764.019C1312.95 764.241 1313.51 765.129 1313.35 766.025L1313.35 766.025L1313.16 767.076L1314.74 781.365L1314.29 781.529L1307.23 770.744L1307.23 770.744L1304.2 766.098L1304.2 766.098L1304.19 766.09C1303.38 764.741 1302.24 764.056 1301.21 764.056C1300.22 764.056 1299.26 764.689 1298.72 766.114C1298.25 767.362 1298.51 768.774 1299.39 769.776L1299.39 769.783L1299.4 769.79L1302.83 774.301L1311.33 784.572L1311.33 784.573C1313.81 787.624 1315.98 788.414 1317.4 788.072C1318.79 787.736 1319.62 786.258 1319.35 784.346L1314.99 767.141L1314.98 767.096Z" fill="#F9F9F9" stroke="#363636" stroke-width="0.5"/>
<path d="M1299.58 769.611L1299.59 769.624L1299.6 769.638L1302.69 773.701C1303.67 772.75 1305.16 771.423 1306.74 770.444L1303.99 766.234L1303.98 766.226L1303.98 766.218C1303.2 764.921 1302.12 764.306 1301.21 764.306C1300.35 764.306 1299.47 764.851 1298.96 766.202C1298.52 767.364 1298.76 768.678 1299.58 769.611Z" fill="#363636" stroke="#363636"/>
<path d="M1302.39 771.024C1296.96 770.521 1293.84 766.662 1292.56 764.519L1293.45 763.009C1294.01 762.08 1294.46 761.108 1294.81 760.079L1295.78 757.215L1299.7 758.898C1299.18 760.319 1299.26 761.775 1299.84 763.261C1300.1 763.95 1300.65 764.519 1301.29 764.869L1301.32 764.879L1302.84 765.591C1306.61 770.544 1302.39 771.024 1302.39 771.024Z" fill="#F9F9F9"/>
<path d="M1291.11 756.545C1290.4 755.556 1290.09 753.989 1290.97 753.529C1291.23 753.391 1291.58 753.362 1291.96 753.414C1291.33 750.018 1292.18 745.584 1294.38 744.432C1297.25 742.925 1300.44 743.309 1304.13 750.829C1305.59 753.804 1304.87 757.888 1302.16 759.627C1300.13 760.935 1296.57 759.648 1294.32 757.663C1293.23 757.794 1292.01 757.799 1291.11 756.545Z" fill="#F9F9F9"/>
<path d="M1302.36 755.896C1302.55 755.819 1302.66 755.758 1302.66 755.755C1302.76 755.699 1302.79 755.577 1302.74 755.48C1302.68 755.384 1302.57 755.345 1302.46 755.406C1302.37 755.458 1300.26 756.63 1298.82 754.705C1298.75 754.616 1298.63 754.596 1298.54 754.664C1298.45 754.732 1298.43 754.858 1298.5 754.946C1299.82 756.705 1301.65 756.19 1302.36 755.896Z" fill="#363636"/>
<path d="M1312.15 790.586C1312.01 790.07 1311.8 789.456 1311.55 788.77C1311.4 788.37 1311.24 787.939 1311.07 787.493C1310.85 786.906 1310.62 786.295 1310.4 785.7C1310.02 784.635 1309.66 783.548 1309.45 782.547C1309.24 781.58 1309.14 780.639 1309.31 779.855V774.368V774.331L1309.31 774.295C1309.5 773.007 1309.37 771.973 1309.04 771.113C1308.7 770.25 1308.14 769.531 1307.43 768.892L1307.43 768.89C1306.49 768.05 1305.32 767.383 1304.06 766.736C1304.1 767.152 1304.02 767.572 1303.84 767.941C1303.43 768.795 1302.5 769.447 1301.34 769.229C1299.17 768.824 1297.57 767.539 1296.26 766.497C1296.2 766.444 1296.13 766.392 1296.07 766.341C1295.38 765.794 1294.8 765.35 1294.25 765.093C1293.77 764.873 1293.34 764.806 1292.9 764.932L1292.44 765.69C1292.69 767.383 1292.36 768.48 1292.05 769.506L1292.05 769.51C1291.74 770.539 1291.46 771.494 1291.72 773.06C1291.79 773.46 1291.92 774.765 1292.1 776.533C1292.22 777.822 1292.38 779.357 1292.55 780.966C1292.94 784.619 1293.42 788.686 1293.94 791.314L1312.15 790.586Z" fill="#363636" stroke="#363636"/>
<path d="M1312.97 830.989L1312.97 830.989C1312.95 830.672 1312.97 830.242 1312.99 829.856C1313 829.748 1313.01 829.644 1313.01 829.547C1313.03 829.283 1313.04 829.063 1313.04 828.93C1313.04 828.754 1313.04 828.587 1313.03 828.398L1313.03 828.391V828.384L1313.03 828.285L1313.03 828.284C1313.06 823.716 1313.02 821.162 1312.99 818.692L1312.99 818.593C1312.95 816.156 1312.92 813.775 1312.95 809.598V809.597V809.596V809.595V809.594V809.593V809.592V809.592V809.591V809.59V809.589V809.588V809.587V809.586V809.585V809.585V809.584V809.583V809.582V809.581V809.58V809.58V809.579V809.578V809.577V809.576V809.576V809.575V809.574V809.573V809.573V809.572V809.571V809.57V809.57V809.569V809.568V809.567V809.567V809.566V809.565V809.565V809.564V809.563V809.563V809.562V809.561V809.561V809.56V809.559V809.559V809.558V809.557V809.557V809.556V809.556V809.555V809.554V809.554V809.553V809.553V809.552V809.551V809.551V809.55V809.55V809.549V809.549V809.548V809.548V809.547V809.547V809.546V809.546V809.545V809.545V809.544V809.544V809.543V809.543V809.542V809.542V809.541V809.541V809.54V809.54V809.539V809.539V809.538V809.538V809.538V809.537V809.537V809.536V809.536V809.535V809.535V809.535V809.534V809.534V809.533V809.533V809.533V809.532V809.532V809.532V809.531V809.531V809.531V809.53V809.53V809.529V809.529V809.529V809.528V809.528V809.528V809.528V809.527V809.527V809.527V809.526V809.526V809.526V809.525V809.525V809.525V809.525V809.524V809.524V809.524V809.523V809.523V809.523V809.523V809.522V809.522V809.522V809.522V809.521V809.521V809.521V809.521V809.521V809.52V809.52V809.52V809.52V809.52V809.519V809.519V809.519V809.519V809.519V809.518V809.518V809.518V809.518V809.518V809.517V809.517V809.517V809.517V809.517V809.517V809.516V809.516V809.516V809.516V809.516V809.516V809.516V809.515V809.515V809.515V809.515V809.515V809.515V809.515V809.514V809.514V809.514V809.514V809.514V809.514V809.514V809.514V809.514V809.513V809.513V809.513V809.513V809.513V809.513V809.513V809.513V809.513V809.513V809.513V809.512V809.512V809.512V809.512V809.512V809.512V809.512V809.512V809.512V809.512V809.512V809.512V809.512V809.511V809.511V809.511V809.511V809.511V809.511V809.511V809.511V809.511V809.511V809.511V809.511V809.51V809.51V809.51V809.51V809.51V809.51V809.51V809.51V809.51V809.51V809.51V809.51V809.51V809.51V809.51V809.509V809.509V809.509V809.509V809.509V809.509V809.509V809.509V809.509V809.509V809.509V809.509V809.509V809.509V809.508V809.508V809.508V809.508V809.508V809.508V809.508V809.508V809.508V809.508V809.508V809.507V809.507V809.507V809.507V809.507V809.507V809.507V809.507V809.507V809.507V809.507V809.507V809.506V809.506V809.506V809.506V809.506V809.506V809.506V809.506V809.506V809.506V809.505V809.505V809.505V809.505V809.505V809.505V809.505V809.505V809.504V809.504V809.504V809.504V809.504V809.504V809.504V809.503V809.503V809.503V809.503V809.503V809.503V809.503V809.502V809.502V809.502V809.502V809.502V809.501V809.501V809.501V809.501V809.501V809.501V809.5V809.5V809.5V809.5V809.5V809.499V809.499V809.499V809.499V809.498V809.498V809.498V809.498V809.497V809.497V809.497V809.497V809.496V809.496V809.496V809.496V809.495V809.495V809.495V809.495V809.494V809.494V809.494V809.493V809.493V809.493V809.492V809.492V809.492V809.492V809.491V809.491V809.491V809.49V809.49V809.49V809.489V809.489V809.489V809.488V809.488V809.487V809.487V809.487V809.486V809.486V809.486V809.485V809.485V809.484V809.484V809.483V809.483V809.483V809.482V809.482V809.481V809.481V809.48V809.48V809.48V809.479V809.479V809.478V809.478V809.477V809.477V809.476V809.476V809.475V809.475V809.474V809.474V809.473V809.473V809.472V809.472V809.471V809.471V809.47V809.469V809.469V809.468V809.468V809.467V809.467V809.466V809.465V809.465V809.464V809.464V809.463V809.462V809.462V809.461V809.461V809.46V809.459V809.459V809.458V809.457V809.457V809.456V809.455V809.455V809.454V809.453V809.453V809.452V809.451V809.45V809.45V809.449V809.448V809.447V809.447V809.446L1312.95 809.445L1312.95 809.443C1312.98 806.276 1312.29 803.24 1311.4 800.248C1311.02 798.997 1310.61 797.756 1310.2 796.518C1310.12 796.275 1310.04 796.032 1309.96 795.79C1309.5 794.372 1309.04 792.955 1308.65 791.534H1297.28C1296.96 793.11 1296.2 794.481 1295.34 795.773C1294.99 796.298 1294.62 796.814 1294.25 797.326C1294.15 797.471 1294.04 797.615 1293.94 797.759C1293.47 798.416 1293.01 799.069 1292.61 799.743C1290.85 802.72 1289.75 806.068 1289.11 809.471L1289.11 809.471C1289.03 809.903 1288.99 810.757 1288.98 811.956C1288.98 813.146 1289.01 814.656 1289.07 816.383C1289.18 819.837 1289.4 824.156 1289.63 828.524C1289.7 829.847 1289.77 831.175 1289.84 832.485C1290.23 839.816 1290.59 846.592 1290.5 848.808L1290.49 849.081L1290.22 849.046C1289.85 848.998 1289.48 849.183 1289.11 849.669C1288.73 850.157 1288.37 850.903 1288.04 851.86C1287.37 853.77 1286.81 856.432 1286.24 859.309C1286.13 859.846 1286.03 860.391 1285.92 860.939C1285.46 863.317 1284.99 865.762 1284.44 867.966C1283.81 870.539 1283.08 872.822 1282.14 874.297C1282.66 874.616 1283.15 874.905 1283.65 875.197C1284.01 875.407 1284.38 875.62 1284.75 875.846C1288.56 868.485 1292.79 858.208 1296.04 848.793C1296.44 847.655 1296.94 845.317 1297.5 842.265C1298.06 839.22 1298.66 835.48 1299.24 831.551L1299.24 831.551C1300.06 826.086 1300.82 820.239 1301.39 815.397L1301.88 815.376C1302.63 819.033 1303.32 825.323 1303.89 831.422L1303.89 831.422C1304.29 835.771 1304.63 840.037 1304.86 843.215C1304.98 844.805 1305.07 846.122 1305.14 847.043C1305.17 847.503 1305.19 847.864 1305.21 848.11L1305.23 848.39L1305.23 848.462L1305.23 848.48L1305.23 848.485L1305.23 848.486L1305.23 848.487C1305.23 848.487 1305.23 848.487 1304.98 848.503L1305.23 848.487L1305.24 848.642L1305.11 848.72C1304.37 849.144 1303.97 849.797 1303.78 850.553C1303.58 851.315 1303.59 852.17 1303.65 852.967L1303.65 852.968C1303.7 853.78 1303.86 857.616 1303.82 862.032C1303.79 866.313 1303.58 871.166 1302.91 874.335C1303.52 874.388 1304.1 874.459 1304.69 874.53C1305.13 874.583 1305.56 874.636 1306 874.682C1306.01 874.626 1306.03 874.559 1306.05 874.482C1306.11 874.224 1306.19 873.851 1306.29 873.377C1306.51 872.428 1306.8 871.073 1307.16 869.421C1307.86 866.115 1308.8 861.62 1309.71 856.801C1310.62 851.982 1311.51 846.841 1312.13 842.246C1312.76 837.645 1313.12 833.609 1312.97 830.989Z" fill="#F9F9F9" stroke="#363636" stroke-width="0.5"/>
<path d="M1297.38 814.131L1297.38 814.13L1297.38 814.13L1297.38 814.13L1297.38 814.13L1297.38 814.129C1297.5 814.016 1297.54 813.908 1297.56 813.804C1297.57 813.694 1297.54 813.564 1297.46 813.41C1297.31 813.097 1296.98 812.754 1296.6 812.427C1296.21 812.104 1295.79 811.815 1295.45 811.606C1295.29 811.502 1295.15 811.418 1295.05 811.36C1295 811.332 1294.96 811.31 1294.93 811.295L1294.9 811.278L1294.89 811.274L1294.89 811.273L1294.89 811.273L1294.89 811.273L1294.89 811.272L1295.12 810.825C1295.99 811.222 1296.5 811.165 1296.76 811.057C1296.84 811.024 1296.9 810.986 1296.95 810.948L1292.3 807.738L1292.24 807.697L1292.21 807.63L1283.88 787.926L1283.83 787.804L1283.9 787.693L1291.12 776.485L1291.12 776.485L1293.69 772.495L1293.69 772.494L1293.69 772.486C1295 770.616 1295.55 768.985 1295.59 767.704C1295.63 766.424 1295.18 765.504 1294.49 765.004C1293.81 764.506 1292.85 764.394 1291.81 764.824C1290.77 765.254 1289.66 766.23 1288.71 767.898L1288.71 767.899L1286.31 772.109L1286.09 771.985L1286.31 772.109L1279.01 784.869L1279.01 784.869C1277.8 786.988 1277.86 789.621 1279.17 791.686L1279.17 791.686L1290.17 809.071L1290.17 809.071L1290.18 809.083C1292.42 813.086 1294.27 814.283 1295.5 814.531C1296.11 814.655 1296.58 814.548 1296.9 814.414C1297.06 814.347 1297.18 814.273 1297.26 814.217C1297.31 814.189 1297.33 814.165 1297.35 814.15C1297.36 814.142 1297.37 814.136 1297.37 814.133L1297.38 814.131Z" fill="#F9F9F9" stroke="#363636" stroke-width="0.5"/>
<path d="M1293.48 772.359L1293.48 772.351L1293.49 772.343C1294.78 770.5 1295.3 768.915 1295.34 767.695C1295.38 766.48 1294.95 765.647 1294.35 765.207C1293.74 764.768 1292.88 764.653 1291.91 765.055C1290.93 765.459 1289.86 766.389 1288.93 768.022L1288.93 768.023L1286.76 771.814C1287.42 772.224 1288.25 772.787 1289.08 773.456C1289.88 774.106 1290.69 774.872 1291.32 775.711L1293.48 772.359Z" fill="#363636" stroke="#363636"/>
<path d="M1300.49 745.345C1301.02 745.288 1300.57 746.859 1300.22 747.122C1299.46 747.698 1298.59 747.386 1297.84 747.131C1297.91 749.245 1295.71 749.702 1294.02 749.798C1295.05 751.206 1295.88 754.148 1294.14 755.256C1293.68 755.546 1293.23 755.467 1293.33 756.089C1293.96 760.158 1298.03 762.407 1298.03 762.407C1295.9 763.303 1289.45 760.158 1289.45 760.158C1289.13 759.843 1284.12 754.623 1287.81 746.097C1289.21 742.843 1293.64 742.729 1296.19 742.612C1297.6 742.547 1299.67 742.91 1300.84 743.757C1301.38 744.15 1301.75 744.926 1302 745.537C1302.28 746.239 1302 746.919 1301.18 746.302" fill="#363636"/>
<path d="M1401.81 690.332L1401.81 690.332C1402.71 690.894 1403.71 690.673 1404.37 690.059C1405.04 689.443 1405.35 688.453 1404.89 687.494L1404.89 687.494C1404.54 686.762 1403.98 685.928 1403.1 685.046L1403.09 685.039L1403.08 685.033L1402.04 683.786L1401.67 683.352L1402.23 683.461L1403.74 683.756L1403.75 683.758L1403.76 683.761C1404.72 684.059 1405.36 682.774 1404.54 682.192C1403.8 681.669 1402.69 681.098 1401.04 680.556L1401 680.543L1400.97 680.515C1394.84 674.985 1389.28 668.781 1385.41 662.241C1382.57 657.456 1380.63 652.488 1380.02 647.457C1379.84 645.967 1378.97 644.657 1377.65 643.922C1374.73 642.319 1371.11 644.227 1370.79 647.55L1370.79 647.551C1370.72 648.179 1370.69 648.806 1370.69 649.434C1370.69 652.495 1371.44 655.515 1372.83 658.254C1373.9 660.327 1375.28 662.394 1376.89 664.431L1376.89 664.432C1382.3 671.287 1390.31 677.724 1397.84 683.102L1397.91 683.149L1397.92 683.229L1397.92 683.229L1397.92 683.229L1397.92 683.23L1397.92 683.232L1397.93 683.243L1397.93 683.287C1397.94 683.325 1397.95 683.383 1397.97 683.457C1398 683.604 1398.05 683.818 1398.12 684.081C1398.25 684.607 1398.46 685.327 1398.77 686.105C1399.38 687.67 1400.36 689.427 1401.81 690.332Z" fill="#F9F9F9" stroke="#363636" stroke-width="0.4"/>
<path d="M1387.11 661.457L1376.95 664.921C1375.33 662.876 1373.94 660.798 1372.87 658.71C1371.46 655.944 1370.71 652.893 1370.71 649.799C1370.71 649.164 1370.74 648.531 1370.8 647.896C1371.14 644.431 1374.91 642.44 1377.97 644.113C1379.34 644.879 1380.25 646.246 1380.44 647.798C1381.04 652.795 1384.28 656.69 1387.11 661.457Z" fill="#363636"/>
<path d="M1443.52 691.712L1443.75 691.661L1443.52 691.712C1440.95 679.631 1449.37 667.768 1462.01 666.499C1471.53 665.544 1480.66 671.377 1483.79 680.416C1486.16 687.272 1484.82 694.305 1481.02 699.594L1525.78 690.084L1516.02 644.157C1512.81 649.913 1506.92 654.129 1499.63 654.826C1490.05 655.743 1480.89 649.772 1477.87 640.631C1473.86 628.556 1481.28 616.035 1493.37 613.466L1493.43 613.71L1493.37 613.466C1499.53 612.158 1505.63 613.702 1510.3 617.195L1500.67 571.889L1408.82 591.402C1394.43 594.459 1385.24 608.602 1388.3 622.992L1388.05 623.044L1388.3 622.992L1407.87 715.132L1453.45 705.45C1448.54 702.575 1444.79 697.72 1443.52 691.712Z" fill="#F9F9F9" stroke="#363636" stroke-width="0.5"/>
<path d="M1370.05 641.242L1370.05 641.242C1369.99 641.679 1370.23 642.17 1370.69 642.683C1371.14 643.19 1371.78 643.682 1372.44 644.112C1373.1 644.541 1373.78 644.904 1374.3 645.153C1374.56 645.278 1374.79 645.373 1374.95 645.434C1375.03 645.465 1375.09 645.486 1375.13 645.497C1375.14 645.499 1375.14 645.5 1375.15 645.501C1375.32 645.421 1375.44 645.251 1375.43 645.033C1375.3 642.867 1375.37 639.015 1377.03 635.996L1372.01 631.97C1371.97 632.114 1371.92 632.31 1371.85 632.549C1371.71 633.098 1371.5 633.877 1371.28 634.795C1370.84 636.632 1370.32 639.021 1370.05 641.242ZM1375.17 645.506C1375.18 645.507 1375.18 645.506 1375.17 645.506L1375.17 645.506Z" fill="#F9F9F9" stroke="#363636" stroke-width="0.4"/>
<path d="M1370.06 634.074L1370.06 634.068C1370.01 633.995 1369.95 633.846 1369.89 633.612C1369.84 633.385 1369.78 633.095 1369.74 632.755C1369.65 632.076 1369.6 631.209 1369.63 630.266C1369.68 628.373 1370.03 626.205 1370.94 624.636C1371.46 623.748 1372.06 622.974 1372.71 622.4C1373.35 621.824 1374.03 621.459 1374.7 621.367L1374.7 621.367C1376.34 621.144 1377.86 621.404 1379.09 622.753C1380.33 624.118 1381.32 626.625 1381.79 630.974C1381.79 630.974 1381.79 630.974 1381.79 630.974L1381.99 630.953C1382.01 631.142 1382.02 631.186 1382.02 631.231C1382.03 631.276 1382.02 631.321 1382.01 631.512L1370.06 634.074ZM1370.06 634.074L1370.06 634.08C1370.8 635.436 1371.92 636.737 1373.15 637.627C1374.39 638.521 1375.71 638.98 1376.86 638.718L1376.86 638.718C1378.08 638.443 1379.15 637.59 1379.98 636.463C1380.82 635.336 1381.41 633.952 1381.67 632.649L1381.72 632.416L1381.92 632.496L1370.06 634.074ZM1376.91 638.913C1374.44 639.473 1371.4 636.936 1369.89 634.176C1369.37 633.364 1368.89 627.76 1370.77 624.535L1376.91 638.913ZM1376.91 638.913C1379.4 638.349 1381.24 635.495 1381.82 632.886L1376.91 638.913Z" fill="#F9F9F9" stroke="#363636" stroke-width="0.4"/>
<path d="M1379.57 634.438C1378.99 634.053 1378.44 633.384 1378.45 632.243C1378.45 632.15 1378.53 632.075 1378.62 632.076C1378.72 632.077 1378.79 632.153 1378.79 632.248C1378.77 634.287 1380.78 634.587 1380.87 634.6C1380.96 634.612 1381.03 634.698 1381.02 634.791C1381 634.884 1380.92 634.949 1380.82 634.937C1380.81 634.935 1380.18 634.843 1379.57 634.438Z" fill="#363636"/>
<path d="M1374.33 759.738C1372.38 764.874 1376.34 764.958 1386.36 764.926C1387.76 764.913 1388.73 763.443 1386.37 762.712L1378.66 759.568C1378.66 759.568 1375.13 759.522 1374.39 759.568L1374.33 759.738Z" fill="#363636"/>
<path d="M1351.02 759.35C1349.07 764.486 1353.37 764.449 1363.39 764.417C1364.79 764.403 1365.76 762.934 1363.4 762.204L1356.16 759.057C1356.16 759.057 1351.87 759.012 1351.14 759.057L1351.02 759.35Z" fill="#363636"/>
<path d="M1378.2 759.066C1382.14 734.248 1382.69 709.011 1379.76 683.341H1363.2C1371.14 707.279 1374.85 732.581 1374.89 759.066H1378.2Z" fill="#F9F9F9" stroke="#363636"/>
<path d="M1360.51 695.785L1360.51 695.785L1360.51 695.785L1360.56 695.883L1360.56 695.991C1360.54 716.191 1357.37 737.657 1351.79 758.557H1355.84C1365.06 738.092 1370.89 712.449 1373.33 683.341H1359.92C1358.74 686.147 1358.85 689.189 1359.29 691.589C1359.51 692.827 1359.82 693.88 1360.07 694.624C1360.2 694.995 1360.31 695.288 1360.39 695.487C1360.43 695.587 1360.46 695.663 1360.48 695.713C1360.49 695.738 1360.5 695.757 1360.5 695.769L1360.51 695.782L1360.51 695.784L1360.51 695.785Z" fill="#F9F9F9" stroke="#363636"/>
<path d="M1381.73 683.379L1355.58 684.917C1359.52 671.306 1358.63 656.341 1362.39 648.191C1363.82 645.09 1365.9 642.767 1368.89 641.547C1373.29 639.753 1378.42 642.063 1379.87 646.585C1380.76 649.345 1380.42 653.063 1379.78 657.233C1378.78 663.806 1378.75 670.493 1379.53 677.097L1381.73 683.379Z" fill="#363636"/>
<path d="M1404.74 623.174L1404.78 623.107L1404.86 623.093L1404.86 623.093L1404.86 623.093L1404.87 623.093L1404.87 623.092L1404.88 623.09L1404.92 623.082C1404.96 623.074 1405.02 623.063 1405.09 623.047C1405.24 623.015 1405.45 622.966 1405.72 622.898C1406.24 622.762 1406.96 622.55 1407.74 622.244C1409.31 621.628 1411.06 620.651 1411.97 619.194C1412.53 618.287 1412.3 617.292 1411.68 616.627C1411.07 615.963 1410.07 615.652 1409.11 616.11C1408.39 616.472 1407.55 617.039 1406.67 617.921L1406.66 617.926L1406.66 617.932L1405.42 618.981L1404.99 619.347L1405.1 618.791L1405.38 617.283L1405.38 617.272L1405.39 617.261C1405.68 616.296 1404.4 615.662 1403.82 616.472C1403.29 617.219 1402.72 618.336 1402.18 619.974L1402.17 620.014L1402.14 620.045C1396.28 626.581 1389.65 632.468 1382.66 636.375L1385.23 644.848C1392.4 639.427 1399.15 631.036 1404.74 623.174Z" fill="#F9F9F9" stroke="#363636" stroke-width="0.4"/>
<path d="M1386.34 647.228C1384.67 648.485 1381.96 647.885 1380.24 648.77C1377.45 650.203 1374.38 650.958 1371.26 650.958C1370.65 650.958 1370.05 650.925 1369.44 650.869C1365.97 650.531 1363.97 646.759 1365.64 643.708C1366.4 642.331 1367.77 641.412 1369.33 641.225C1373.85 640.68 1378.55 638.481 1382.88 636.075L1386.34 647.228Z" fill="#363636"/>
<path d="M1374.59 633.285C1375.87 631.668 1376.7 629.78 1376.66 627.824C1377.01 628.076 1377.43 628.202 1377.86 628.295C1381.05 628.998 1384.56 628.006 1386.91 625.738C1383.61 624.057 1381.15 621.684 1379.55 620.84C1378.05 620.049 1376.3 619.699 1374.62 620.046C1374.14 620.147 1373.65 620.309 1373.23 620.583C1372.8 620.869 1372.63 621.364 1372.25 621.654C1372.06 621.794 1371.8 621.755 1371.57 621.737C1369.31 621.555 1367.01 623.94 1366.74 625.84C1365.01 637.82 1372.55 635.872 1374.59 633.285Z" fill="#363636"/>
<rect x="1180.23" y="381.746" width="170.181" height="122.298" stroke="#363636"/>
<rect x="81.3242" y="471.526" width="149.831" height="105.539" stroke="#363636"/>
<line x1="1204.87" y1="409.476" x2="1297.05" y2="409.476" stroke="#363636"/>
<line x1="103.568" y1="495.665" x2="184.969" y2="495.665" stroke="#363636"/>
<line x1="1207.27" y1="434.614" x2="1324.58" y2="434.614" stroke="#363636"/>
<line x1="104.766" y1="533.971" x2="208.911" y2="533.971" stroke="#363636"/>
<line x1="1202.48" y1="468.132" x2="1289.86" y2="468.132" stroke="#363636"/>
<circle cx="71.8464" cy="374.662" r="13.2663" stroke="#363636"/>
<circle cx="1246.17" cy="321.991" r="13.2663" stroke="#363636"/>
<circle cx="924.159" cy="585.346" r="13.2663" stroke="#363636"/>
<circle cx="1776.47" cy="764.906" r="13.2663" stroke="#363636"/>
<circle cx="1596.91" cy="335.159" r="13.2663" stroke="#363636"/>
<circle cx="164.02" cy="778.074" r="13.2663" stroke="#363636"/>
<circle cx="100.576" cy="359.1" r="7.28094" stroke="#363636"/>
<circle cx="109.554" cy="394.413" r="9.07655" stroke="#363636"/>
<path d="M1294.38 775.743L1296.78 774.546" stroke="#F9F9F9" stroke-linecap="round"/>
<path d="M1302.92 771.163L1305.54 770.621" stroke="#F9F9F9" stroke-linecap="round"/>
<path d="M1291.06 769.096L1293.45 767.899" stroke="#F9F9F9" stroke-linecap="round"/>
<path d="M1297.05 770.293L1298.24 771.49" stroke="#F9F9F9" stroke-linecap="round"/>
<path d="M1305.69 775.918L1307.56 777.836" stroke="#F9F9F9" stroke-linecap="round"/>
<path d="M1295.85 782.264L1298.24 781.067" stroke="#F9F9F9" stroke-linecap="round"/>
<path d="M1301.7 780.293L1304.36 780.644" stroke="#F9F9F9" stroke-linecap="round"/>
<path d="M1304.24 783.437L1306.61 784.682" stroke="#F9F9F9" stroke-linecap="round"/>
<path d="M1297.05 788.249L1299.44 787.052" stroke="#F9F9F9" stroke-linecap="round"/>
<path d="M1299.44 777.476L1301.83 776.279" stroke="#F9F9F9" stroke-linecap="round"/>
<path d="M1306.62 789.446L1309.02 788.249" stroke="#F9F9F9" stroke-linecap="round"/>
<path d="M1372.46 646.995L1376.05 645.798" stroke="#F9F9F9" stroke-linecap="round"/>
<path d="M1378.58 640.706L1381.91 642.511" stroke="#F9F9F9" stroke-linecap="round"/>
<path d="M1376.05 650.586L1379.38 652.392" stroke="#F9F9F9" stroke-linecap="round"/>
<path d="M1363.95 649.682L1367.54 648.508" stroke="#F9F9F9" stroke-linecap="round"/>
<path d="M1362.74 656.841L1366.36 655.713" stroke="#F9F9F9" stroke-linecap="round"/>
<path d="M1368.7 654.335L1372.37 653.432" stroke="#F9F9F9" stroke-linecap="round"/>
<path d="M1377.25 656.572L1380.58 658.377" stroke="#F9F9F9" stroke-linecap="round"/>
<path d="M1372.02 661.527L1373.84 658.21" stroke="#F9F9F9" stroke-linecap="round"/>
<path d="M1373.66 667.345L1374.86 666.148" stroke="#F9F9F9" stroke-linecap="round"/>
<path d="M1366.48 662.557L1367.67 663.754" stroke="#F9F9F9" stroke-linecap="round"/>
<path d="M1360.49 664.951H1362.88" stroke="#F9F9F9" stroke-linecap="round"/>
<path d="M1367.67 670.937L1368.87 669.739" stroke="#F9F9F9" stroke-linecap="round"/>
<path d="M1373.66 673.331L1374.86 674.528" stroke="#F9F9F9" stroke-linecap="round"/>
<path d="M1376.05 679.316L1377.25 680.513" stroke="#F9F9F9" stroke-linecap="round"/>
<path d="M1368.87 676.922L1370.07 675.725" stroke="#F9F9F9" stroke-linecap="round"/>
<path d="M1361.69 670.937L1362.88 669.739" stroke="#F9F9F9" stroke-linecap="round"/>
<path d="M1359.29 676.922H1361.69" stroke="#F9F9F9" stroke-linecap="round"/>
<path d="M1365.28 680.513H1367.67" stroke="#F9F9F9" stroke-linecap="round"/>
<path d="M103.568 324.261C104.359 324.388 105.6 325.778 106.338 326.239C107.641 327.054 108.668 327.556 110.014 327.845C111.295 328.119 114.801 329.208 114.801 329.208L119.572 330.197C121.362 330.325 123.233 330.593 125.111 330.593C127.111 330.593 128.472 328.804 130.189 327.823C131.692 326.963 132.147 326.636 135.284 322.831C141.468 313.451 140.037 316.653 143.952 307.638C144.831 305.379 145.354 303.527 145.731 299.921C145.731 299.043 145.877 297.317 145.354 296.645C145.011 296.203 145.354 293.984 141.468 293.984C137.351 293.984 138.652 303.164 138.652 306.847C138.652 311.454 138.276 315.633 140.037 319.709C140.838 321.563 142.125 323.192 143.332 324.744M143.332 324.744C144.362 326.068 142.224 323.636 143.332 324.744ZM143.332 324.744C144.388 325.801 148.561 329.91 149.8 330.593C153.181 332.456 156.022 333.363 159.733 333.363C161.751 333.363 162.931 332.369 164.743 331.472C166.92 330.396 170.362 324.744 170.362 324.744L184.507 300.515C189.003 293.984 193.921 280.609 200.188 283.487C202.027 284.332 202.984 287.082 205.127 290.137L206.712 295.473L209.435 306.605C209.435 306.605 212.641 317.032 215.101 319.445C218.012 322.303 218.939 322.794 222.557 321.843C224.683 321.283 226.371 318.131 227.593 315.774C229.146 312.778 230.717 310.744 232.688 308.21C234.047 306.462 235.603 305.096 237.082 303.527C237.984 302.57 240.142 300.515 240.142 300.603L244.927 296.672C250.519 291.877 254.247 293.076 257.975 296.672L260.83 301.306C260.83 301.306 265.452 304.091 266.37 306.451" stroke="#363636" stroke-linecap="round"/>
<path d="M851.736 196.174C852.801 196.301 854.47 197.691 855.463 198.153C857.216 198.968 858.599 199.47 860.41 199.758C862.134 200.033 866.851 201.121 866.851 201.121L873.27 202.111C875.679 202.239 878.197 202.506 880.724 202.506C883.415 202.506 885.246 200.718 887.557 199.736C889.58 198.877 890.192 198.55 894.413 194.745C902.733 185.365 900.808 188.567 906.077 179.552C907.258 177.293 907.963 175.44 908.469 171.834C908.469 170.957 908.667 169.231 907.963 168.558C907.501 168.117 907.963 165.898 902.733 165.898C897.194 165.898 898.945 175.078 898.945 178.76C898.945 183.368 898.439 187.546 900.808 191.623C901.886 193.477 903.618 195.106 905.242 196.658M905.242 196.658C906.627 197.982 903.751 195.55 905.242 196.658ZM905.242 196.658C906.663 197.714 912.277 201.824 913.945 202.506C918.494 204.37 922.317 205.277 927.311 205.277C930.026 205.277 931.614 204.282 934.052 203.386C936.981 202.309 941.613 196.658 941.613 196.658L960.647 172.428C966.696 165.898 973.314 152.522 981.746 155.4C984.221 156.245 985.509 158.995 988.392 162.05L990.525 167.387L994.19 178.519C994.19 178.519 998.503 188.945 1001.81 191.359C1005.73 194.216 1006.98 194.708 1011.85 193.756C1014.71 193.197 1016.98 190.044 1018.62 187.687C1020.71 184.692 1022.83 182.657 1025.48 180.124C1027.31 178.376 1029.4 177.01 1031.39 175.44C1032.6 174.484 1035.51 172.428 1035.51 172.516L1041.95 168.585C1049.47 163.791 1054.49 164.989 1059.5 168.585L1063.35 173.22C1063.35 173.22 1069.56 176.004 1070.8 178.365" stroke="#363636" stroke-linecap="round"/>
<path d="M1446.68 394.887C1447.74 395.014 1449.41 396.404 1450.41 396.866C1452.16 397.681 1453.54 398.183 1455.35 398.471C1457.08 398.746 1461.79 399.834 1461.79 399.834L1468.21 400.824C1470.62 400.952 1473.14 401.22 1475.67 401.22C1478.36 401.22 1480.19 399.431 1482.5 398.449C1484.52 397.59 1485.14 397.263 1489.36 393.458C1497.68 384.078 1495.75 387.28 1501.02 378.265C1502.2 376.006 1502.91 374.153 1503.41 370.548C1503.41 369.67 1503.61 367.944 1502.91 367.271C1502.44 366.83 1502.91 364.611 1497.68 364.611C1492.14 364.611 1493.89 373.791 1493.89 377.474C1493.89 382.081 1493.38 386.26 1495.75 390.336C1496.83 392.19 1498.56 393.819 1500.19 395.371M1500.19 395.371C1501.57 396.695 1498.69 394.263 1500.19 395.371ZM1500.19 395.371C1501.61 396.427 1507.22 400.537 1508.89 401.22C1513.44 403.083 1517.26 403.99 1522.25 403.99C1524.97 403.99 1526.56 402.995 1529 402.099C1531.92 401.022 1536.56 395.371 1536.56 395.371L1555.59 371.141C1561.64 364.611 1568.26 351.235 1576.69 354.113C1579.16 354.958 1580.45 357.708 1583.34 360.763L1585.47 366.1L1589.13 377.232C1589.13 377.232 1593.45 387.658 1596.76 390.072C1600.67 392.929 1601.92 393.421 1606.79 392.469C1609.65 391.91 1611.92 388.757 1613.57 386.4C1615.66 383.405 1617.77 381.371 1620.42 378.837C1622.25 377.089 1624.34 375.723 1626.33 374.153C1627.55 373.197 1630.45 371.141 1630.45 371.229L1636.89 367.298C1644.41 362.504 1649.43 363.702 1654.45 367.298L1658.29 371.933C1658.29 371.933 1664.51 374.717 1665.74 377.078" stroke="#363636" stroke-linecap="round"/>
<path d="M960.67 684.578C961.734 684.705 963.403 686.095 964.397 686.557C966.149 687.372 967.532 687.873 969.343 688.162C971.067 688.437 975.785 689.525 975.785 689.525L982.204 690.515C984.612 690.642 987.131 690.91 989.658 690.91C992.348 690.91 994.18 689.121 996.49 688.14C998.513 687.281 999.125 686.954 1003.35 683.149C1011.67 673.769 1009.74 676.97 1015.01 667.956C1016.19 665.697 1016.9 663.844 1017.4 660.238C1017.4 659.361 1017.6 657.635 1016.9 656.962C1016.43 656.521 1016.9 654.302 1011.67 654.302C1006.13 654.302 1007.88 663.481 1007.88 667.164C1007.88 671.771 1007.37 675.95 1009.74 680.027C1010.82 681.88 1012.55 683.509 1014.18 685.062M1014.18 685.062C1015.56 686.386 1012.68 683.953 1014.18 685.062ZM1014.18 685.062C1015.6 686.118 1021.21 690.227 1022.88 690.91C1027.43 692.774 1031.25 693.681 1036.24 693.681C1038.96 693.681 1040.55 692.686 1042.99 691.79C1045.91 690.713 1050.55 685.062 1050.55 685.062L1069.58 660.832C1075.63 654.302 1082.25 640.926 1090.68 643.804C1093.15 644.649 1094.44 647.399 1097.33 650.454L1099.46 655.79L1103.12 666.922C1103.12 666.922 1107.44 677.349 1110.75 679.763C1114.66 682.62 1115.91 683.112 1120.78 682.16C1123.64 681.601 1125.91 678.448 1127.56 676.091C1129.65 673.096 1131.76 671.061 1134.41 668.527C1136.24 666.779 1138.33 665.414 1140.32 663.844C1141.54 662.887 1144.44 660.832 1144.44 660.92L1150.88 656.989C1158.4 652.194 1163.42 653.393 1168.44 656.989L1172.28 661.623C1172.28 661.623 1178.5 664.408 1179.73 666.768" stroke="#363636" stroke-linecap="round"/>
<path d="M420.792 715.702C421.856 715.829 423.525 717.219 424.519 717.681C426.271 718.496 427.654 718.998 429.465 719.286C431.189 719.561 435.907 720.649 435.907 720.649L442.326 721.639C444.734 721.766 447.253 722.034 449.78 722.034C452.47 722.034 454.302 720.245 456.612 719.264C458.635 718.405 459.247 718.078 463.468 714.273C471.789 704.893 469.864 708.095 475.132 699.08C476.314 696.821 477.019 694.968 477.525 691.362C477.525 690.485 477.722 688.759 477.019 688.086C476.557 687.645 477.019 685.426 471.789 685.426C466.249 685.426 468 694.605 468 698.288C468 702.895 467.494 707.074 469.864 711.151C470.941 713.004 472.673 714.633 474.297 716.186M474.297 716.186C475.683 717.51 472.806 715.077 474.297 716.186ZM474.297 716.186C475.719 717.242 481.333 721.351 483 722.034C487.55 723.898 491.373 724.805 496.367 724.805C499.081 724.805 500.67 723.81 503.108 722.914C506.037 721.837 510.668 716.186 510.668 716.186L529.703 691.956C535.752 685.426 542.369 672.05 550.802 674.928C553.277 675.773 554.564 678.523 557.448 681.578L559.581 686.914L563.245 698.046C563.245 698.046 567.559 708.473 570.869 710.887C574.786 713.744 576.034 714.236 580.902 713.284C583.762 712.725 586.034 709.572 587.678 707.215C589.767 704.22 591.882 702.185 594.534 699.651C596.363 697.903 598.456 696.538 600.446 694.968C601.66 694.011 604.564 691.956 604.564 692.044L611.002 688.113C618.527 683.319 623.544 684.517 628.56 688.113L632.402 692.748C632.402 692.748 638.621 695.532 639.856 697.892" stroke="#363636" stroke-linecap="round"/>
<rect x="263.976" y="704.455" width="112.524" height="183.151" fill="#DA8C76"/>
<rect x="412.112" y="792.439" width="97.8603" height="95.1669" fill="#F9F9F9"/>
<circle cx="307.519" cy="722.859" r="7.63131" fill="#363636"/>
<circle cx="347.92" cy="722.859" r="7.63131" fill="#363636"/>
<circle cx="362.285" cy="755.18" r="7.63131" fill="#363636"/>
<circle cx="274.3" cy="875.485" r="7.63131" fill="#363636"/>
<circle cx="274.3" cy="747.1" r="7.63131" fill="#363636"/>
<circle cx="281.483" cy="776.727" r="7.63131" fill="#363636"/>
<circle cx="300.336" cy="759.669" r="7.63131" fill="#363636"/>
<circle cx="350.614" cy="784.808" r="7.63131" fill="#363636"/>
<circle cx="330.862" cy="752.487" r="7.63131" fill="#363636"/>
<circle cx="312.008" cy="784.808" r="7.63131" fill="#363636"/>
<circle cx="359.591" cy="814.435" r="7.63131" fill="#363636"/>
<circle cx="323.679" cy="819.822" r="7.63131" fill="#363636"/>
<circle cx="297.643" cy="807.252" r="7.63131" fill="#363636"/>
<circle cx="278.79" cy="829.698" r="7.63131" fill="#363636"/>
<circle cx="301.234" cy="849.449" r="7.63131" fill="#363636"/>
<circle cx="328.168" cy="864.712" r="7.63131" fill="#363636"/>
<circle cx="354.205" cy="875.485" r="7.63131" fill="#363636"/>
<circle cx="347.022" cy="844.96" r="7.63131" fill="#363636"/>
<path d="M456.104 792.439H477.652" stroke="#363636" stroke-width="2" stroke-linecap="round"/>
<path d="M421.091 807.702H442.638" stroke="#363636" stroke-width="2" stroke-linecap="round"/>
<path d="M463.287 822.066H484.834" stroke="#363636" stroke-width="2" stroke-linecap="round"/>
<path d="M423.784 837.329H445.331" stroke="#363636" stroke-width="2" stroke-linecap="round"/>
<path d="M434.558 829.249H456.105" stroke="#363636" stroke-width="2" stroke-linecap="round"/>
<path d="M477.652 807.702H499.2" stroke="#363636" stroke-width="2" stroke-linecap="round"/>
<path d="M484.835 857.081H506.382" stroke="#363636" stroke-width="2" stroke-linecap="round"/>
<path d="M466.879 841.818H488.426" stroke="#363636" stroke-width="2" stroke-linecap="round"/>
<path d="M423.784 875.935H445.331" stroke="#363636" stroke-width="2" stroke-linecap="round"/>
<path d="M434.558 857.081H456.105" stroke="#363636" stroke-width="2" stroke-linecap="round"/>
<path d="M463.287 875.935H484.834" stroke="#363636" stroke-width="2" stroke-linecap="round"/>
</svg>
